<?xml version="1.0" encoding="utf-8"?>
<svg width="145px" height="54px" viewBox="0 0 145 54" version="1.1" xmlns="http://www.w3.org/2000/svg" xmlns:xlink="http://www.w3.org/1999/xlink">
		<path fill="#ff5a5f" d="M8.41,22.19c-1.17,0-2.27-0.21-3.29-0.64c-1.02-0.42-1.9-1-2.65-1.72c-0.75-0.72-1.34-1.58-1.77-2.56
			c-0.43-0.98-0.65-2.03-0.65-3.14c0-1.13,0.22-2.19,0.65-3.17c0.43-0.98,1.02-1.84,1.77-2.57c0.75-0.73,1.64-1.31,2.65-1.72
			c1.02-0.41,2.11-0.62,3.29-0.62c0.9,0,1.75,0.12,2.54,0.37c0.8,0.24,1.53,0.58,2.19,1.01c0.66,0.43,1.24,0.94,1.73,1.54
			c0.49,0.59,0.9,1.25,1.21,1.97l-3.33,1.31c-0.37-0.83-0.93-1.48-1.69-1.98c-0.76-0.49-1.64-0.74-2.63-0.74
			c-0.68,0-1.31,0.12-1.88,0.36s-1.08,0.57-1.51,0.98c-0.43,0.41-0.77,0.9-1,1.46C3.8,12.9,3.68,13.5,3.68,14.13
			c0,0.62,0.12,1.21,0.36,1.77c0.24,0.56,0.57,1.04,1,1.46c0.43,0.41,0.94,0.74,1.53,0.98c0.59,0.24,1.22,0.36,1.9,0.36
			c1.04,0,1.94-0.26,2.68-0.79c0.74-0.52,1.3-1.2,1.66-2.02l3.33,1.34c-0.31,0.72-0.71,1.38-1.21,1.99
			c-0.49,0.61-1.07,1.14-1.72,1.58c-0.65,0.44-1.38,0.78-2.19,1.02C10.22,22.07,9.35,22.19,8.41,22.19z"/>
		<path fill="#ff5a5f" d="M17.54,1.82h3.71V8.3c0.55-0.7,1.23-1.25,2.05-1.65c0.82-0.4,1.74-0.61,2.76-0.61c2,0,3.56,0.59,4.69,1.78
			c1.13,1.19,1.69,2.84,1.69,4.97v9.36h-3.79v-8.92c0-1.24-0.3-2.21-0.91-2.92c-0.6-0.71-1.51-1.06-2.72-1.06
			c-0.51,0-1,0.09-1.46,0.28c-0.46,0.19-0.86,0.46-1.2,0.82c-0.34,0.36-0.6,0.81-0.8,1.34c-0.19,0.54-0.29,1.15-0.29,1.83v8.62
			h-3.74V1.82z"/>
		<path fill="#ff5a5f" d="M34.56,6.08h3.74v16.08h-3.74V6.08z"/>
		<path fill="#ff5a5f" d="M48.28,22.19c-1.17,0-2.27-0.21-3.29-0.64c-1.02-0.42-1.9-1-2.65-1.72c-0.75-0.72-1.34-1.58-1.77-2.56
			c-0.43-0.98-0.65-2.03-0.65-3.14c0-1.13,0.22-2.19,0.65-3.17c0.43-0.98,1.02-1.84,1.77-2.57c0.75-0.73,1.64-1.31,2.65-1.72
			c1.02-0.41,2.11-0.62,3.29-0.62c0.9,0,1.75,0.12,2.54,0.37c0.8,0.24,1.53,0.58,2.19,1.01c0.66,0.43,1.24,0.94,1.73,1.54
			c0.49,0.59,0.9,1.25,1.21,1.97l-3.33,1.31c-0.37-0.83-0.93-1.48-1.69-1.98c-0.76-0.49-1.64-0.74-2.63-0.74
			c-0.68,0-1.31,0.12-1.88,0.36s-1.08,0.57-1.51,0.98c-0.43,0.41-0.77,0.9-1,1.46c-0.24,0.56-0.36,1.16-0.36,1.79
			c0,0.62,0.12,1.21,0.36,1.77c0.24,0.56,0.57,1.04,1,1.46c0.43,0.41,0.94,0.74,1.53,0.98c0.59,0.24,1.22,0.36,1.9,0.36
			c1.05,0,1.94-0.26,2.68-0.79c0.74-0.52,1.3-1.2,1.66-2.02L56,17.23c-0.31,0.72-0.72,1.38-1.21,1.99
			c-0.49,0.61-1.07,1.14-1.72,1.58c-0.65,0.44-1.38,0.78-2.19,1.02C50.08,22.07,49.21,22.19,48.28,22.19z"/>
		<path fill="#ff5a5f" d="M64.66,22.19c-0.97,0-1.93-0.18-2.87-0.54c-0.94-0.36-1.79-0.89-2.54-1.58c-0.75-0.69-1.36-1.53-1.81-2.53
			c-0.46-1-0.69-2.13-0.69-3.41c0-1.29,0.22-2.43,0.67-3.43c0.45-1,1.04-1.84,1.79-2.53c0.74-0.69,1.59-1.21,2.56-1.58
			c0.96-0.36,1.95-0.54,2.96-0.54c1.06,0,2.04,0.19,2.94,0.58c0.9,0.38,1.64,0.91,2.23,1.57V6.08h3.71v16.08h-3.71v-2.29
			c-0.59,0.72-1.34,1.28-2.25,1.7C66.72,21.98,65.73,22.19,64.66,22.19z M65.27,18.78c0.7,0,1.34-0.12,1.92-0.36
			c0.59-0.24,1.09-0.58,1.51-1.01c0.42-0.43,0.76-0.93,1-1.5c0.25-0.57,0.37-1.18,0.37-1.83c0-0.64-0.12-1.24-0.37-1.81
			c-0.25-0.57-0.58-1.06-1-1.49c-0.42-0.42-0.93-0.75-1.51-0.99c-0.59-0.24-1.23-0.36-1.92-0.36c-0.68,0-1.32,0.12-1.91,0.36
			c-0.6,0.24-1.11,0.57-1.55,0.98c-0.44,0.41-0.78,0.9-1.03,1.47c-0.25,0.57-0.37,1.18-0.37,1.83c0,0.65,0.12,1.27,0.37,1.85
			c0.25,0.58,0.59,1.08,1.03,1.5c0.44,0.42,0.96,0.75,1.55,0.99C63.95,18.66,64.59,18.78,65.27,18.78z"/>
		<path fill="#ff5a5f" d="M81.77,22.19c-1.78,0-3.25-0.33-4.43-0.99c-1.17-0.66-2.08-1.62-2.72-2.87l3.44-1.55
			c0.39,0.7,0.91,1.25,1.57,1.62c0.66,0.38,1.43,0.57,2.31,0.57c0.92,0,1.6-0.18,2.06-0.55c0.46-0.37,0.69-0.8,0.69-1.31
			c0-0.28-0.11-0.51-0.32-0.68c-0.21-0.17-0.49-0.33-0.82-0.46c-0.34-0.13-0.74-0.24-1.2-0.33c-0.46-0.09-0.94-0.18-1.43-0.29
			c-0.7-0.14-1.38-0.31-2.05-0.5c-0.67-0.19-1.27-0.46-1.8-0.8c-0.53-0.34-0.96-0.78-1.29-1.31c-0.33-0.53-0.49-1.2-0.49-2
			c0-0.61,0.15-1.2,0.45-1.77c0.3-0.57,0.73-1.07,1.28-1.51c0.55-0.44,1.21-0.78,1.99-1.04c0.78-0.25,1.64-0.38,2.6-0.38
			c1.61,0,2.96,0.3,4.03,0.9s1.92,1.41,2.54,2.44l-3.16,1.49c-0.33-0.54-0.79-0.97-1.37-1.28c-0.59-0.31-1.26-0.47-2.03-0.47
			c-0.88,0-1.53,0.17-1.95,0.5c-0.42,0.33-0.63,0.72-0.63,1.15c0,0.51,0.31,0.87,0.93,1.09c0.62,0.22,1.54,0.45,2.75,0.7
			c0.66,0.12,1.32,0.28,1.99,0.49c0.67,0.2,1.28,0.47,1.83,0.81c0.55,0.34,0.99,0.78,1.33,1.31c0.34,0.53,0.51,1.2,0.51,2.01
			c0,0.54-0.13,1.11-0.39,1.69c-0.26,0.59-0.66,1.13-1.2,1.63c-0.54,0.5-1.22,0.9-2.05,1.22C83.91,22.03,82.92,22.19,81.77,22.19z"
			/>
		<path fill="#ff5a5f" d="M102.94,22.18c-1.26,0-2.42-0.21-3.46-0.62c-1.04-0.42-1.94-0.99-2.68-1.71c-0.74-0.72-1.32-1.58-1.73-2.56
			c-0.41-0.98-0.62-2.03-0.62-3.14c0-1.13,0.22-2.19,0.65-3.18c0.43-0.99,1.02-1.85,1.77-2.57c0.75-0.72,1.64-1.3,2.65-1.72
			c1.02-0.42,2.11-0.64,3.28-0.64c1.19,0,2.29,0.19,3.31,0.58c1.02,0.39,1.89,0.93,2.62,1.62c0.73,0.7,1.31,1.52,1.72,2.46
			c0.41,0.94,0.62,1.98,0.62,3.09v1.31H98c0.26,1.14,0.81,2.05,1.68,2.75c0.86,0.7,1.95,1.04,3.27,1.04c1.04,0,1.95-0.26,2.72-0.77
			c0.77-0.51,1.35-1.2,1.73-2.06l3.05,1.76c-0.7,1.3-1.67,2.35-2.93,3.15C106.26,21.78,104.74,22.18,102.94,22.18z M102.81,9.32
			c-1.12,0-2.08,0.25-2.9,0.74c-0.82,0.49-1.39,1.14-1.72,1.95h9.12c-0.28-0.88-0.81-1.55-1.59-2.01
			C104.93,9.55,103.96,9.32,102.81,9.32z"/>
		<path fill="#ff5a5f" d="M112.73,6.08h3.68v2.2c0.53-0.67,1.2-1.21,2.02-1.61c0.82-0.41,1.75-0.61,2.79-0.61c2,0,3.56,0.59,4.69,1.78
			s1.69,2.84,1.69,4.96v9.36h-3.77v-8.94c0-1.22-0.3-2.18-0.91-2.89c-0.6-0.71-1.51-1.06-2.72-1.06c-1.06,0-1.96,0.37-2.68,1.1
			c-0.72,0.73-1.09,1.79-1.09,3.17v8.62h-3.71V6.08z"/>
		<path fill="#ff5a5f" d="M0,30.26h2.75v-2.45l3.74-2.56v5h3.27v3.33H6.49v6.02c0,0.7,0.04,1.26,0.11,1.69
			c0.07,0.43,0.22,0.76,0.45,0.99c0.23,0.23,0.56,0.38,0.99,0.45c0.43,0.07,1,0.11,1.72,0.11v3.49H9.24c-1.25,0-2.29-0.11-3.12-0.33
			c-0.83-0.22-1.5-0.59-1.99-1.11c-0.49-0.52-0.85-1.21-1.06-2.06c-0.21-0.85-0.32-1.92-0.32-3.2v-6.05H0V30.26z"/>
		<path fill="#ff5a5f" d="M18.97,46.37c-1.26,0-2.42-0.21-3.46-0.62s-1.94-0.98-2.68-1.71c-0.74-0.72-1.32-1.58-1.73-2.56
			c-0.41-0.98-0.62-2.03-0.62-3.14c0-1.13,0.22-2.19,0.65-3.18c0.43-0.99,1.02-1.85,1.77-2.57c0.75-0.72,1.64-1.3,2.65-1.72
			c1.02-0.42,2.11-0.64,3.29-0.64c1.19,0,2.3,0.19,3.31,0.58c1.02,0.39,1.89,0.93,2.63,1.62c0.73,0.7,1.31,1.52,1.72,2.46
			c0.41,0.94,0.62,1.98,0.62,3.09v1.31H14.02c0.26,1.14,0.82,2.05,1.68,2.75c0.86,0.7,1.95,1.04,3.27,1.04
			c1.04,0,1.95-0.26,2.72-0.77c0.77-0.51,1.35-1.2,1.73-2.06l3.05,1.76c-0.7,1.3-1.67,2.35-2.93,3.15
			C22.29,45.97,20.77,46.37,18.97,46.37z M18.83,33.5c-1.12,0-2.09,0.25-2.9,0.74c-0.82,0.49-1.39,1.15-1.72,1.95h9.13
			c-0.27-0.88-0.81-1.55-1.59-2.01C20.96,33.73,19.99,33.5,18.83,33.5z"/>
		<path fill="#ff5a5f" d="M36.59,46.37c-1.17,0-2.27-0.21-3.29-0.64c-1.02-0.42-1.9-1-2.65-1.72c-0.75-0.72-1.34-1.58-1.77-2.56
			c-0.43-0.98-0.65-2.03-0.65-3.14c0-1.13,0.22-2.19,0.65-3.17c0.43-0.98,1.02-1.84,1.77-2.57c0.75-0.73,1.64-1.31,2.65-1.72
			c1.02-0.41,2.11-0.62,3.29-0.62c0.9,0,1.75,0.12,2.54,0.37c0.8,0.24,1.53,0.58,2.19,1.01c0.66,0.43,1.24,0.94,1.73,1.54
			c0.49,0.59,0.9,1.25,1.21,1.97l-3.33,1.31c-0.37-0.83-0.93-1.48-1.69-1.98c-0.76-0.49-1.64-0.74-2.63-0.74
			c-0.68,0-1.31,0.12-1.88,0.36c-0.58,0.24-1.08,0.57-1.51,0.98c-0.43,0.41-0.77,0.9-1,1.46c-0.24,0.56-0.36,1.16-0.36,1.79
			c0,0.62,0.12,1.21,0.36,1.77c0.24,0.56,0.57,1.04,1,1.46c0.43,0.41,0.94,0.74,1.53,0.98c0.59,0.24,1.22,0.36,1.9,0.36
			c1.04,0,1.94-0.26,2.68-0.79c0.74-0.52,1.3-1.2,1.66-2.02l3.33,1.34c-0.31,0.72-0.71,1.38-1.21,1.99
			c-0.49,0.61-1.07,1.14-1.72,1.58c-0.65,0.44-1.38,0.78-2.19,1.02C38.4,46.25,37.53,46.37,36.59,46.37z"/>
		<path fill="#ff5a5f" d="M45.72,30.26h3.68v2.2c0.53-0.67,1.21-1.21,2.02-1.61c0.82-0.41,1.75-0.61,2.79-0.61c2,0,3.56,0.59,4.69,1.78
			c1.13,1.19,1.69,2.84,1.69,4.97v9.36h-3.77V37.4c0-1.22-0.3-2.18-0.91-2.89c-0.6-0.71-1.51-1.06-2.72-1.06
			c-1.06,0-1.96,0.37-2.68,1.1c-0.72,0.73-1.09,1.79-1.09,3.17v8.62h-3.71V30.26z"/>
		<path fill="#ff5a5f" d="M70.55,46.37c-1.15,0-2.24-0.21-3.26-0.62s-1.9-0.99-2.65-1.72c-0.75-0.73-1.34-1.59-1.77-2.57
			c-0.43-0.98-0.65-2.03-0.65-3.14c0-1.13,0.22-2.19,0.65-3.17c0.43-0.98,1.02-1.84,1.77-2.57c0.75-0.73,1.64-1.31,2.65-1.72
			c1.02-0.41,2.1-0.62,3.26-0.62s2.24,0.21,3.24,0.62c1.01,0.42,1.89,0.99,2.65,1.72c0.76,0.73,1.36,1.59,1.79,2.57
			c0.43,0.98,0.65,2.04,0.65,3.17c0,1.11-0.22,2.16-0.65,3.14c-0.43,0.98-1.03,1.84-1.79,2.57c-0.76,0.73-1.65,1.31-2.65,1.72
			C72.78,46.16,71.7,46.37,70.55,46.37z M70.55,42.88c0.66,0,1.27-0.12,1.84-0.36c0.57-0.24,1.06-0.57,1.48-0.98
			c0.42-0.41,0.75-0.9,0.99-1.46c0.24-0.56,0.36-1.15,0.36-1.77c0-0.64-0.12-1.23-0.36-1.79c-0.24-0.56-0.57-1.04-0.99-1.46
			c-0.42-0.41-0.92-0.74-1.48-0.98c-0.57-0.24-1.18-0.36-1.84-0.36c-0.66,0-1.28,0.12-1.86,0.36c-0.58,0.24-1.07,0.57-1.48,0.98
			c-0.41,0.41-0.74,0.9-0.98,1.46c-0.24,0.56-0.36,1.16-0.36,1.79c0,0.62,0.12,1.21,0.36,1.77c0.24,0.56,0.56,1.04,0.98,1.46
			c0.41,0.41,0.91,0.74,1.48,0.98C69.27,42.76,69.89,42.88,70.55,42.88z"/>
		<path fill="#ff5a5f" d="M80.5,26h3.74v20.35H80.5V26z"/>
		<path fill="#ff5a5f" d="M94.19,46.37c-1.15,0-2.24-0.21-3.26-0.62s-1.9-0.99-2.65-1.72c-0.75-0.73-1.34-1.59-1.77-2.57
			c-0.43-0.98-0.65-2.03-0.65-3.14c0-1.13,0.22-2.19,0.65-3.17c0.43-0.98,1.02-1.84,1.77-2.57c0.75-0.73,1.64-1.31,2.65-1.72
			c1.02-0.41,2.1-0.62,3.26-0.62s2.24,0.21,3.24,0.62c1.01,0.42,1.89,0.99,2.65,1.72c0.76,0.73,1.36,1.59,1.79,2.57
			c0.43,0.98,0.65,2.04,0.65,3.17c0,1.11-0.22,2.16-0.65,3.14c-0.43,0.98-1.03,1.84-1.79,2.57c-0.76,0.73-1.65,1.31-2.65,1.72
			C96.43,46.16,95.35,46.37,94.19,46.37z M94.19,42.88c0.66,0,1.27-0.12,1.84-0.36c0.57-0.24,1.06-0.57,1.48-0.98
			c0.42-0.41,0.75-0.9,0.99-1.46c0.24-0.56,0.36-1.15,0.36-1.77c0-0.64-0.12-1.23-0.36-1.79c-0.24-0.56-0.57-1.04-0.99-1.46
			c-0.42-0.41-0.92-0.74-1.48-0.98c-0.57-0.24-1.18-0.36-1.84-0.36c-0.66,0-1.28,0.12-1.86,0.36c-0.58,0.24-1.07,0.57-1.48,0.98
			c-0.41,0.41-0.74,0.9-0.98,1.46c-0.24,0.56-0.36,1.16-0.36,1.79c0,0.62,0.12,1.21,0.36,1.77c0.24,0.56,0.56,1.04,0.98,1.46
			c0.41,0.41,0.91,0.74,1.48,0.98C92.91,42.76,93.53,42.88,94.19,42.88z"/>
		<path fill="#ff5a5f" d="M116.93,43.9c-0.59,0.77-1.34,1.37-2.25,1.81c-0.92,0.44-1.92,0.66-3,0.66c-0.97,0-1.93-0.18-2.87-0.54
			c-0.94-0.36-1.79-0.89-2.54-1.58c-0.75-0.69-1.36-1.53-1.81-2.53c-0.46-1-0.69-2.13-0.69-3.41c0-1.29,0.22-2.43,0.67-3.43
			c0.45-1,1.04-1.84,1.79-2.53c0.74-0.69,1.59-1.21,2.56-1.58c0.96-0.36,1.95-0.54,2.96-0.54c1.06,0,2.04,0.21,2.94,0.62
			c0.9,0.41,1.64,0.97,2.23,1.68v-2.27h3.71v15.47c0,1.12-0.18,2.17-0.54,3.15c-0.36,0.98-0.88,1.83-1.58,2.57
			c-0.7,0.73-1.56,1.31-2.6,1.74c-1.04,0.43-2.23,0.64-3.59,0.64c-1.04,0-1.99-0.11-2.85-0.34c-0.85-0.23-1.62-0.55-2.3-0.96
			c-0.68-0.41-1.27-0.9-1.79-1.46c-0.51-0.56-0.95-1.18-1.32-1.86l3.3-2.01c0.59,1.08,1.25,1.89,1.98,2.42
			c0.73,0.53,1.74,0.8,3.02,0.8c0.7,0,1.33-0.13,1.9-0.38c0.57-0.26,1.05-0.6,1.44-1.02c0.39-0.42,0.7-0.92,0.91-1.48
			c0.21-0.57,0.32-1.15,0.32-1.76V43.9z M112.28,42.96c0.7,0,1.34-0.12,1.92-0.36c0.59-0.24,1.09-0.58,1.51-1.01
			c0.42-0.43,0.76-0.93,1-1.5c0.25-0.57,0.37-1.18,0.37-1.83c0-0.64-0.12-1.24-0.37-1.81c-0.25-0.57-0.58-1.06-1-1.49
			c-0.42-0.42-0.93-0.75-1.51-0.99c-0.59-0.24-1.23-0.36-1.92-0.36c-0.68,0-1.32,0.12-1.91,0.36c-0.6,0.24-1.11,0.57-1.55,0.98
			c-0.44,0.41-0.78,0.9-1.03,1.47c-0.25,0.57-0.37,1.18-0.37,1.83c0,0.65,0.12,1.27,0.37,1.85c0.25,0.58,0.59,1.08,1.03,1.5
			c0.44,0.42,0.96,0.75,1.55,0.99C110.97,42.84,111.6,42.96,112.28,42.96z"/>
		<path fill="#ff5a5f" d="M122.79,30.26h3.74v16.08h-3.74V30.26z M126.39,24.21h3.46l-3.41,4.67h-3.41L126.39,24.21z"/>
		<path fill="#ff5a5f" d="M136.06,46.37c-0.97,0-1.93-0.18-2.87-0.54c-0.94-0.36-1.79-0.89-2.54-1.58c-0.75-0.69-1.36-1.53-1.81-2.53
			c-0.46-1-0.69-2.13-0.69-3.41c0-1.29,0.22-2.43,0.67-3.43c0.45-1,1.04-1.84,1.79-2.53c0.74-0.69,1.59-1.21,2.56-1.58
			c0.96-0.36,1.95-0.54,2.96-0.54c1.06,0,2.04,0.19,2.94,0.58c0.9,0.38,1.64,0.91,2.23,1.57v-2.12H145v16.08h-3.71v-2.29
			c-0.59,0.72-1.34,1.28-2.25,1.7C138.12,46.17,137.13,46.37,136.06,46.37z M136.67,42.96c0.7,0,1.34-0.12,1.92-0.36
			c0.59-0.24,1.09-0.58,1.51-1.01c0.42-0.43,0.76-0.93,1-1.5c0.25-0.57,0.37-1.18,0.37-1.83c0-0.64-0.12-1.24-0.37-1.81
			c-0.25-0.57-0.58-1.06-1-1.49c-0.42-0.42-0.93-0.75-1.51-0.99c-0.59-0.24-1.23-0.36-1.92-0.36c-0.68,0-1.32,0.12-1.91,0.36
			c-0.6,0.24-1.11,0.57-1.55,0.98c-0.44,0.41-0.78,0.9-1.03,1.47c-0.25,0.57-0.37,1.18-0.37,1.83c0,0.65,0.12,1.27,0.37,1.85
			c0.25,0.58,0.59,1.08,1.03,1.5c0.44,0.42,0.96,0.75,1.55,0.99C135.35,42.84,135.99,42.96,136.67,42.96z"/>
		<path fill="#ff5a5f" d="M34.53,3.92V2.04L38.32,0v3.92H34.53z"/>
</svg>
